<?xml version="1.0" encoding="UTF-8"?>
<!--
Copyright (C) 2009/2010/2011 Ulrich Apel.
This work is distributed under the conditions of the Creative Commons
Attribution-Share Alike 3.0 Licence. This means you are free:
* to Share - to copy, distribute and transmit the work
* to Remix - to adapt the work

Under the following conditions:
* Attribution. You must attribute the work by stating your use of KanjiVG in
  your own copyright header and linking to KanjiVG's website
  (http://kanjivg.tagaini.net)
* Share Alike. If you alter, transform, or build upon this work, you may
  distribute the resulting work only under the same or similar license to this
  one.

See http://creativecommons.org/licenses/by-sa/3.0/ for more details.
-->
<!DOCTYPE svg PUBLIC "-//W3C//DTD SVG 1.0//EN" "http://www.w3.org/TR/2001/REC-SVG-20010904/DTD/svg10.dtd" [
	<!ATTLIST g
		xmlns:kvg CDATA #FIXED "http://kanjivg.tagaini.net"
		kvg:element CDATA #IMPLIED
		kvg:variant CDATA #IMPLIED
		kvg:partial CDATA #IMPLIED
		kvg:original CDATA #IMPLIED
		kvg:part CDATA #IMPLIED
		kvg:number CDATA #IMPLIED
		kvg:tradForm CDATA #IMPLIED
		kvg:radicalForm CDATA #IMPLIED
		kvg:position CDATA #IMPLIED
		kvg:radical CDATA #IMPLIED
		kvg:phon CDATA #IMPLIED >
	<!ATTLIST path
		xmlns:kvg CDATA #FIXED "http://kanjivg.tagaini.net"
		kvg:type CDATA #IMPLIED >
]>
<svg xmlns="http://www.w3.org/2000/svg" width="109" height="109" viewBox="0 0 109 109">
	<g id="kvg:StrokePaths_058c7" style="fill:none;stroke:#000000;stroke-width:3;stroke-linecap:round;stroke-linejoin:round;">
		<g id="kvg:058c7-g3" kvg:element="㐭">
			<g id="kvg:058c7-g4" kvg:element="亠" kvg:position="top">
				<path id="kvg:058c7-s4" kvg:type="㇑a" d="M67.81,9.5c0.97,0.97,1.63,2.12,1.63,3.54c0,1.96-0.06,5.59-0.06,7.34" />
				<path id="kvg:058c7-s5" kvg:type="㇐" d="M43.89,23.47c2.65,0.62,5.28,0.32,7.98-0.02c10.02-1.24,26.9-2.82,37.63-3.57c2.36-0.16,5.12-0.38,7.34,0.13" />
			</g>
			<g id="kvg:058c7-g5" kvg:element="回" kvg:position="bottom">
				<g id="kvg:058c7-g6" kvg:element="⿙">
					<path id="kvg:058c7-s6" kvg:type="㇑" d="M48.47,32.15c0.81,0.81,1.35,2.79,1.49,3.71c0.7,4.73,1.51,11.56,2.46,19.4c0.17,1.37,0.33,3.04,0.48,4.51" />
					<path id="kvg:058c7-s7" kvg:type="㇕a" d="M50.4,33.51c14.31-1.78,28.27-3.63,35.98-4.15c3.48-0.24,6.06,1,5.21,4.78c-1.52,6.74-2.76,14.11-3.45,17.38c-0.32,1.53-0.8,3.58-1.11,5.1" />
				</g>
				<g id="kvg:058c7-g7" kvg:element="口">
					<path id="kvg:058c7-s8" kvg:type="㇑" d="M59.25,40.07c0.66,0.34,1.25,1.15,1.26,1.92c0.56,1.79,1.08,3.4,1.48,5.47c0.19,0.99,0.39,1.98,0.62,2.92" />
					<path id="kvg:058c7-s9" kvg:type="㇕b" d="M61.2,40.54c4.77-1.02,11.01-1.81,14.68-2.24c2.52-0.3,3.37,0.45,2.8,2.39c-0.42,1.46-1.03,3.32-1.79,5.59" />
					<path id="kvg:058c7-s10" kvg:type="㇐b" d="M63.77,48.81c3.28-0.51,6.64-0.81,11.01-1.24c0.99-0.1,1.97-0.2,2.91-0.31" />
				</g>
				<g id="kvg:058c7-g8">
					<path id="kvg:058c7-s11" kvg:type="㇐a" d="M54,57.5c9.07-1.05,21.43-2.23,32.28-2.63" />
				</g>
			</g>
		</g>
	</g>
	<g id="kvg:StrokeNumbers_058c7" style="font-size:8;fill:#808080">
		<text transform="matrix(1 0 0 1 59.50 9.50)">1</text>
		<text transform="matrix(1 0 0 1 41.50 20.50)">2</text>
		<text transform="matrix(1 0 0 1 42.50 38.50)">3</text>
		<text transform="matrix(1 0 0 1 54.75 31.50)">4</text>
		<text transform="matrix(1 0 0 1 55.50 46.50)">5</text>
		<text transform="matrix(1 0 0 1 61.50 38.50)">6</text>
		<text transform="matrix(1 0 0 1 63.75 46.50)">7</text>
		<text transform="matrix(1 0 0 1 55.50 54.50)">8</text>
	</g>
</svg>