<?xml version="1.0" encoding="UTF-8"?>
<!--
Copyright (C) 2009/2010/2011 Ulrich Apel.
This work is distributed under the conditions of the Creative Commons
Attribution-Share Alike 3.0 Licence. This means you are free:
* to Share - to copy, distribute and transmit the work
* to Remix - to adapt the work

Under the following conditions:
* Attribution. You must attribute the work by stating your use of KanjiVG in
  your own copyright header and linking to KanjiVG's website
  (http://kanjivg.tagaini.net)
* Share Alike. If you alter, transform, or build upon this work, you may
  distribute the resulting work only under the same or similar license to this
  one.

See http://creativecommons.org/licenses/by-sa/3.0/ for more details.
-->
<!DOCTYPE svg PUBLIC "-//W3C//DTD SVG 1.0//EN" "http://www.w3.org/TR/2001/REC-SVG-20010904/DTD/svg10.dtd" [
	<!ATTLIST g
		xmlns:kvg CDATA #FIXED "http://kanjivg.tagaini.net"
		kvg:element CDATA #IMPLIED
		kvg:variant CDATA #IMPLIED
		kvg:partial CDATA #IMPLIED
		kvg:original CDATA #IMPLIED
		kvg:part CDATA #IMPLIED
		kvg:number CDATA #IMPLIED
		kvg:tradForm CDATA #IMPLIED
		kvg:radicalForm CDATA #IMPLIED
		kvg:position CDATA #IMPLIED
		kvg:radical CDATA #IMPLIED
		kvg:phon CDATA #IMPLIED >
	<!ATTLIST path
		xmlns:kvg CDATA #FIXED "http://kanjivg.tagaini.net"
		kvg:type CDATA #IMPLIED >
]>
<svg xmlns="http://www.w3.org/2000/svg" width="109" height="109" viewBox="0 0 109 109">
	<g id="kvg:StrokePaths_07483" style="fill:none;stroke:#000000;stroke-width:3;stroke-linecap:round;stroke-linejoin:round;">
		<g kvg:element="㐫">
			<g id="kvg:07483-g3" kvg:element="亠" kvg:position="top">
				<path id="kvg:07483-s5" kvg:type="㇑a" d="M 66.04,10.03 c 0.96,0.96 1.21,2.12 1.21,3.47 0,2.37 0.05,4.75 0.05,7.48" />
				<path id="kvg:07483-s6" kvg:type="㇐" d="M 45.17,23.9 c 3.01,0.48 5.82,0.11 8.83,-0.21 8.95,-0.94 23.18,-2.7 32.49,-3.33 2.48,-0.17 5.16,-0.59 7.58,0.14" />
			</g>
			<g id="kvg:07483-g4" kvg:element="凶" kvg:position="bottom">
				<g id="kvg:07483-g5" kvg:element="乂">
					<g id="kvg:07483-g6" kvg:element="丿">
						<path id="kvg:07483-s7" kvg:type="㇒" d="M 76.28,27.18 c 0.1,0.82 0.17,1.68 -0.35,2.51 -3.68,5.94 -8.8,11.81 -17.66,17.99" />
					</g>
					<path id="kvg:07483-s8" kvg:type="㇔/㇏" d="M 60.31,31.6 C 66.5,34 75.16,40.58 78.4,45.05" />
				</g>
				<g id="kvg:07483-g7" kvg:element="凵" kvg:position="kamae">
					<path id="kvg:07483-s9" kvg:type="㇄a" d="M 50.42,31.3 c 0.7,0.7 1.13,1.7 1.13,2.86 0,2.2 0.09,10.03 -0.01,14.34 -0.07,2.85 -0.02,4.25 3.12,3.81 6.16,-0.87 28.63,-3.43 32.26,-3.6" />
					<path id="kvg:07483-s10" kvg:type="㇑" d="M 87.38,27.08 c 0.96,0.96 1.39,2.02 1.34,3.17 -0.13,2.84 -0.29,10.01 -0.62,15.99 -0.11,1.95 -0.2,3.8 -0.28,5.37" />
				</g>
			</g>
		</g>
	</g>
	<g id="kvg:StrokeNumbers_07483" style="font-size:8;fill:#808080">
		<text transform="matrix(1 0 0 1 57.25 11.25)">5</text>
		<text transform="matrix(1 0 0 1 44.25 21.25)">6</text>
		<text transform="matrix(1 0 0 1 69.25 31.25)">7</text>
		<text transform="matrix(1 0 0 1 57.25 40.25)">8</text>
		<text transform="matrix(1 0 0 1 42.25 34.28)">9</text>
		<text transform="matrix(1 0 0 1 79.25 35.25)">10</text>
	</g>
</svg>