<?xml version="1.0" encoding="UTF-8"?>
<!--
Copyright (C) 2009/2010/2011 Ulrich Apel.
This work is distributed under the conditions of the Creative Commons
Attribution-Share Alike 3.0 Licence. This means you are free:
* to Share - to copy, distribute and transmit the work
* to Remix - to adapt the work

Under the following conditions:
* Attribution. You must attribute the work by stating your use of KanjiVG in
  your own copyright header and linking to KanjiVG's website
  (http://kanjivg.tagaini.net)
* Share Alike. If you alter, transform, or build upon this work, you may
  distribute the resulting work only under the same or similar license to this
  one.

See http://creativecommons.org/licenses/by-sa/3.0/ for more details.
-->
<!DOCTYPE svg PUBLIC "-//W3C//DTD SVG 1.0//EN" "http://www.w3.org/TR/2001/REC-SVG-20010904/DTD/svg10.dtd" [
	<!ATTLIST g
		xmlns:kvg CDATA #FIXED "http://kanjivg.tagaini.net"
		kvg:element CDATA #IMPLIED
		kvg:variant CDATA #IMPLIED
		kvg:partial CDATA #IMPLIED
		kvg:original CDATA #IMPLIED
		kvg:part CDATA #IMPLIED
		kvg:number CDATA #IMPLIED
		kvg:tradForm CDATA #IMPLIED
		kvg:radicalForm CDATA #IMPLIED
		kvg:position CDATA #IMPLIED
		kvg:radical CDATA #IMPLIED
		kvg:phon CDATA #IMPLIED >
	<!ATTLIST path
		xmlns:kvg CDATA #FIXED "http://kanjivg.tagaini.net"
		kvg:type CDATA #IMPLIED >
]>
<svg xmlns="http://www.w3.org/2000/svg" width="109" height="109" viewBox="0 0 109 109">
	<g id="kvg:StrokePaths_08239" style="fill:none;stroke:#000000;stroke-width:3;stroke-linecap:round;stroke-linejoin:round;">
		<g id="kvg:08239-g2" kvg:element="㕣">
			<g id="kvg:08239-g3" kvg:element="八">
				<path id="kvg:08239-s7" kvg:type="㇒" d="M64.75,25c0.62,1.12,0.5,2.62-0.03,4.13c-1.89,5.41-7.1,17.24-10.72,22.49" />
				<path id="kvg:08239-s8" kvg:type="㇏" d="M72.5,19.75c5.37,0.38,12,18.38,19.46,25.45c2.12,2.01,3.66,2.93,5.41,3.8" />
			</g>
			<g id="kvg:08239-g4" kvg:element="口">
				<path id="kvg:08239-s9" kvg:type="㇑" d="M57.1,63.97c1.09,1.09,1.66,2.35,1.86,3.72c0.91,6.06,1.91,11.61,2.8,18.73c0.17,1.39,0.34,2.76,0.49,4.07" />
				<path id="kvg:08239-s10" kvg:type="㇕b" d="M59.25,64.99c9.25-1.24,22.91-2.59,28.18-2.76c2.15-0.07,3.45,1.4,3.07,3.22c-0.96,4.71-3.25,12.3-4.87,19.58" />
				<path id="kvg:08239-s11" kvg:type="㇐b" d="M63.33,87.53c7.3-0.53,13.64-0.86,21.43-1.2c1.09-0.05,2.19-0.09,3.3-0.14" />
			</g>
		</g>
	</g>
	<g id="kvg:StrokeNumbers_08239" style="font-size:8;fill:#808080">
		<text transform="matrix(1 0 0 1 25.50 12.50)">1</text>
		<text transform="matrix(1 0 0 1 13.50 38.50)">2</text>
		<text transform="matrix(1 0 0 1 21.75 28.63)">3</text>
		<text transform="matrix(1 0 0 1 24.75 46.50)">4</text>
		<text transform="matrix(1 0 0 1 25.25 64.50)">5</text>
		<text transform="matrix(1 0 0 1 2.50 58.63)">6</text>
		<text transform="matrix(1 0 0 1 57.00 29.00)">7</text>
		<text transform="matrix(1 0 0 1 74.50 17.50)">8</text>
		<text transform="matrix(1 0 0 1 51.25 71.50)">9</text>
		<text transform="matrix(1 0 0 1 58.50 62.50)">10</text>
		<text transform="matrix(1 0 0 1 64.50 84.50)">11</text>
	</g>
</svg>