<?xml version="1.0" encoding="UTF-8"?>
<!--
Copyright (C) 2009/2010/2011 Ulrich Apel.
This work is distributed under the conditions of the Creative Commons
Attribution-Share Alike 3.0 Licence. This means you are free:
* to Share - to copy, distribute and transmit the work
* to Remix - to adapt the work

Under the following conditions:
* Attribution. You must attribute the work by stating your use of KanjiVG in
  your own copyright header and linking to KanjiVG's website
  (http://kanjivg.tagaini.net)
* Share Alike. If you alter, transform, or build upon this work, you may
  distribute the resulting work only under the same or similar license to this
  one.

See http://creativecommons.org/licenses/by-sa/3.0/ for more details.
-->
<!DOCTYPE svg PUBLIC "-//W3C//DTD SVG 1.0//EN" "http://www.w3.org/TR/2001/REC-SVG-20010904/DTD/svg10.dtd" [
	<!ATTLIST g
		xmlns:kvg CDATA #FIXED "http://kanjivg.tagaini.net"
		kvg:element CDATA #IMPLIED
		kvg:variant CDATA #IMPLIED
		kvg:partial CDATA #IMPLIED
		kvg:original CDATA #IMPLIED
		kvg:part CDATA #IMPLIED
		kvg:number CDATA #IMPLIED
		kvg:tradForm CDATA #IMPLIED
		kvg:radicalForm CDATA #IMPLIED
		kvg:position CDATA #IMPLIED
		kvg:radical CDATA #IMPLIED
		kvg:phon CDATA #IMPLIED >
	<!ATTLIST path
		xmlns:kvg CDATA #FIXED "http://kanjivg.tagaini.net"
		kvg:type CDATA #IMPLIED >
]>
<svg xmlns="http://www.w3.org/2000/svg" width="109" height="109" viewBox="0 0 109 109">
	<g id="kvg:StrokePaths_080fd" style="fill:none;stroke:#000000;stroke-width:3;stroke-linecap:round;stroke-linejoin:round;">
		<g id="kvg:080fd-g1" kvg:element="䏍">
			<g id="kvg:080fd-g2" kvg:element="厶" kvg:position="top" kvg:radical="nelson">
				<path id="kvg:080fd-s1" kvg:type="㇜" d="M32.94,13.25c0.43,0.88,0.15,1.93-0.15,2.5C29.12,22.62,24.38,29,19.31,35.48c-1.41,1.8-1.28,2.92,0.97,2.44c6.6-1.42,17.98-3.79,26.78-5.6" />
				<path id="kvg:080fd-s2" kvg:type="㇔" d="M41.97,24.63c3.12,2.53,8.06,10.4,8.84,14.33" />
			</g>
			<g id="kvg:080fd-g3" kvg:element="⿛" kvg:original="肉" kvg:position="bottom" kvg:radical="tradit">
				<path id="kvg:080fd-s3" kvg:type="㇑" d="M21.83,46.65c0.83,0.83,1.17,2.1,1.19,3.43c0.04,2.91-0.18,29.86-0.14,40.92c0.01,3.16,0.03,5.02,0.04,4.66" />
				<path id="kvg:080fd-s4" kvg:type="㇆a" d="M24.21,48.79C26.1,48.63,42.9,46,44.28,45.73c1.84-0.36,3.14,1.14,3.14,3.31c0,0.98,0.03,27.46,0.03,40.98c0,8.37-5.02,3.15-6.59,1.7" />
				<path id="kvg:080fd-s5" kvg:type="㇐a" d="M24.21,61.18c6.44-0.96,16.46-1.66,22.11-2.14" />
				<path id="kvg:080fd-s6" kvg:type="㇐a" d="M24.18,73.64c5.03-0.48,16.02-1.68,21.83-2" />
			</g>
		</g>
	</g>
	<g id="kvg:StrokeNumbers_080fd" style="font-size:8;fill:#808080">
		<text transform="matrix(1 0 0 1 24.75 15.13)">1</text>
		<text transform="matrix(1 0 0 1 35.50 26.50)">2</text>
		<text transform="matrix(1 0 0 1 15.50 54.50)">3</text>
		<text transform="matrix(1 0 0 1 24.50 45.13)">4</text>
		<text transform="matrix(1 0 0 1 27.75 57.50)">5</text>
		<text transform="matrix(1 0 0 1 27.75 70.48)">6</text>
	</g>
</svg>