<?xml version="1.0" encoding="UTF-8"?>
<!--
Copyright (C) 2009/2010/2011 Ulrich Apel.
This work is distributed under the conditions of the Creative Commons
Attribution-Share Alike 3.0 Licence. This means you are free:
* to Share - to copy, distribute and transmit the work
* to Remix - to adapt the work

Under the following conditions:
* Attribution. You must attribute the work by stating your use of KanjiVG in
  your own copyright header and linking to KanjiVG's website
  (http://kanjivg.tagaini.net)
* Share Alike. If you alter, transform, or build upon this work, you may
  distribute the resulting work only under the same or similar license to this
  one.

See http://creativecommons.org/licenses/by-sa/3.0/ for more details.
-->
<!DOCTYPE svg PUBLIC "-//W3C//DTD SVG 1.0//EN" "http://www.w3.org/TR/2001/REC-SVG-20010904/DTD/svg10.dtd" [
	<!ATTLIST g
		xmlns:kvg CDATA #FIXED "http://kanjivg.tagaini.net"
		kvg:element CDATA #IMPLIED
		kvg:variant CDATA #IMPLIED
		kvg:partial CDATA #IMPLIED
		kvg:original CDATA #IMPLIED
		kvg:part CDATA #IMPLIED
		kvg:number CDATA #IMPLIED
		kvg:tradForm CDATA #IMPLIED
		kvg:radicalForm CDATA #IMPLIED
		kvg:position CDATA #IMPLIED
		kvg:radical CDATA #IMPLIED
		kvg:phon CDATA #IMPLIED >
	<!ATTLIST path
		xmlns:kvg CDATA #FIXED "http://kanjivg.tagaini.net"
		kvg:type CDATA #IMPLIED >
]>
<svg xmlns="http://www.w3.org/2000/svg" width="109" height="109" viewBox="0 0 109 109">
	<g id="kvg:StrokePaths_090f7" style="fill:none;stroke:#000000;stroke-width:3;stroke-linecap:round;stroke-linejoin:round;">
		<g id="kvg:090f7-g2" kvg:element="乡">
			<path id="kvg:090f7-s1" kvg:type="㇜" d="M25.47,18.62c0.28,1.01,0.31,2.33-0.42,3.79c-2.68,5.34-7.1,12.84-10.77,17.27c-0.62,0.75-0.39,2.35,0.28,2.61c3.53,1.34,5.69,2.58,10.13,5.54" />
			<path id="kvg:090f7-s2" kvg:type="㇜" d="M34.03,31.4c0.35,1.1,0.1,2.23-0.46,3.18c-3.81,6.5-12.8,20.38-18.85,27.8c-0.81,1,0,2.76,1,2.46C22,63,25.62,61.88,31.79,60.2" />
			<path id="kvg:090f7-s3" kvg:type="㇒/㇔" d="M33.52,50.25c0.35,1,0.52,2.33,0.42,3.63c-0.69,8.37-4.44,27.37-15.02,35.28" />
		</g>
	</g>
	<g id="kvg:StrokeNumbers_090f7" style="font-size:8;fill:#808080">
		<text transform="matrix(1 0 0 1 18.75 19.63)">1</text>
		<text transform="matrix(1 0 0 1 26.50 32.50)">2</text>
		<text transform="matrix(1 0 0 1 33.50 47.50)">3</text>
	</g>
</svg>