<?xml version="1.0" encoding="UTF-8"?>
<!--
Copyright (C) 2009/2010/2011 Ulrich Apel.
This work is distributed under the conditions of the Creative Commons
Attribution-Share Alike 3.0 Licence. This means you are free:
* to Share - to copy, distribute and transmit the work
* to Remix - to adapt the work

Under the following conditions:
* Attribution. You must attribute the work by stating your use of KanjiVG in
  your own copyright header and linking to KanjiVG's website
  (http://kanjivg.tagaini.net)
* Share Alike. If you alter, transform, or build upon this work, you may
  distribute the resulting work only under the same or similar license to this
  one.

See http://creativecommons.org/licenses/by-sa/3.0/ for more details.
-->
<!DOCTYPE svg PUBLIC "-//W3C//DTD SVG 1.0//EN" "http://www.w3.org/TR/2001/REC-SVG-20010904/DTD/svg10.dtd" [
	<!ATTLIST g
		xmlns:kvg CDATA #FIXED "http://kanjivg.tagaini.net"
		kvg:element CDATA #IMPLIED
		kvg:variant CDATA #IMPLIED
		kvg:partial CDATA #IMPLIED
		kvg:original CDATA #IMPLIED
		kvg:part CDATA #IMPLIED
		kvg:number CDATA #IMPLIED
		kvg:tradForm CDATA #IMPLIED
		kvg:radicalForm CDATA #IMPLIED
		kvg:position CDATA #IMPLIED
		kvg:radical CDATA #IMPLIED
		kvg:phon CDATA #IMPLIED >
	<!ATTLIST path
		xmlns:kvg CDATA #FIXED "http://kanjivg.tagaini.net"
		kvg:type CDATA #IMPLIED >
]>
<svg xmlns="http://www.w3.org/2000/svg" width="109" height="109" viewBox="0 0 109 109">
	<g id="kvg:StrokePaths_07523" style="fill:none;stroke:#000000;stroke-width:3;stroke-linecap:round;stroke-linejoin:round;">
		<g id="kvg:07523" kvg:element="产">
			<g id="kvg:07523-g2" kvg:position="top">
				<g kvg:position="top" kvg:element="亠">
					<path id="kvg:07523-s1" kvg:type="㇑a" d="M53.75,9.25c1,1,1.5,2.25,1.5,4s0,5.38,0,7.75" />
					<path id="kvg:07523-s2" kvg:type="㇐" d="M29.5,23.7c2.38,0.55,4.54,0.3,6.75,0.11c8.76-0.76,28.51-2.9,39.13-3.61c2.64-0.18,5.25-0.31,7.87,0.13" />
				</g>
				<g kvg:position="bottom" kvg:element="丷">
					<path id="kvg:07523-s3" kvg:type="㇔" d="M39.75,27.75c3.12,4.5,5.88,9.88,7.5,14.75" />
					<path id="kvg:07523-s4" kvg:type="㇒" d="M70.91,24.5c0.47,0.75,0.44,1.91,0.37,2.4c-0.49,3.41-4.54,12.24-5.77,14.85" />
				</g>
			</g>
			<g kvg:position="bottom" kvg:element="厂">
				<path id="kvg:07523-s5" kvg:type="㇐" d="M23.75,46.8c3.38,0.45,5.81,0.26,8.74-0.04c14.53-1.5,34.07-3.28,50.26-4.13c3.05-0.16,5.98-0.29,9,0.19" />
				<path id="kvg:07523-s6" kvg:type="㇒" d="M28.25,48.25c0.94,0.94,1.32,2.35,1.18,4.06c-1.8,21.19-8.18,36.44-17.93,46.44" />
			</g>
		</g>
	</g>
	<g id="kvg:StrokeNumbers_07523" style="font-size:8;fill:#808080">
		<text transform="matrix(1 0 0 1 45.50 9.50)">1</text>
		<text transform="matrix(1 0 0 1 21.75 23.50)">2</text>
		<text transform="matrix(1 0 0 1 34.50 34.50)">3</text>
		<text transform="matrix(1 0 0 1 63.50 30.13)">4</text>
		<text transform="matrix(1 0 0 1 16.50 46.50)">5</text>
		<text transform="matrix(1 0 0 1 21.50 57.50)">6</text>
	</g>
</svg>