<?xml version="1.0" encoding="UTF-8"?>
<!--
Copyright (C) 2009/2010/2011 Ulrich Apel.
This work is distributed under the conditions of the Creative Commons
Attribution-Share Alike 3.0 Licence. This means you are free:
* to Share - to copy, distribute and transmit the work
* to Remix - to adapt the work

Under the following conditions:
* Attribution. You must attribute the work by stating your use of KanjiVG in
  your own copyright header and linking to KanjiVG's website
  (http://kanjivg.tagaini.net)
* Share Alike. If you alter, transform, or build upon this work, you may
  distribute the resulting work only under the same or similar license to this
  one.

See http://creativecommons.org/licenses/by-sa/3.0/ for more details.
-->
<!DOCTYPE svg PUBLIC "-//W3C//DTD SVG 1.0//EN" "http://www.w3.org/TR/2001/REC-SVG-20010904/DTD/svg10.dtd" [
	<!ATTLIST g
		xmlns:kvg CDATA #FIXED "http://kanjivg.tagaini.net"
		kvg:element CDATA #IMPLIED
		kvg:variant CDATA #IMPLIED
		kvg:partial CDATA #IMPLIED
		kvg:original CDATA #IMPLIED
		kvg:part CDATA #IMPLIED
		kvg:number CDATA #IMPLIED
		kvg:tradForm CDATA #IMPLIED
		kvg:radicalForm CDATA #IMPLIED
		kvg:position CDATA #IMPLIED
		kvg:radical CDATA #IMPLIED
		kvg:phon CDATA #IMPLIED >
	<!ATTLIST path
		xmlns:kvg CDATA #FIXED "http://kanjivg.tagaini.net"
		kvg:type CDATA #IMPLIED >
]>
<svg xmlns="http://www.w3.org/2000/svg" width="109" height="109" viewBox="0 0 109 109">
	<g id="kvg:StrokePaths_08aac" style="fill:none;stroke:#000000;stroke-width:3;stroke-linecap:round;stroke-linejoin:round;">
		<g id="kvg:08aac-g3" kvg:element="兑" kvg:position="right">
			<g id="kvg:08aac-g4" kvg:element="丷" kvg:variant="true" kvg:position="top">
				<path id="kvg:08aac-s8" kvg:type="㇔" d="M52.5,17.12c3.26,2.44,8.43,10.05,9.25,13.85" />
				<path id="kvg:08aac-s9" kvg:type="㇒" d="M86,13.12c0.03,0.98-0.32,2.12-0.53,2.69c-1.57,4.3-4.89,10.3-10.07,16.15" />
			</g>
			<g id="kvg:08aac-g7" kvg:element="兄" kvg:position="bottom">
				<g id="kvg:08aac-g8" kvg:element="口" kvg:position="top">
					<path id="kvg:08aac-s10" kvg:type="㇑" d="M51.73,38.63c0.88,0.88,1.27,1.62,1.5,2.61c0.69,3.05,1.71,10.07,2.64,16.38c0.19,1.31,0.38,2.58,0.56,3.79" />
					<path id="kvg:08aac-s11" kvg:type="㇕b" d="M54.23,40.12c7.61-1.18,20.73-2.41,28.25-3.16c3.39-0.34,5.93,0.58,5.07,4.45c-0.95,4.28-2.43,8.36-3.64,13.97" />
					<path id="kvg:08aac-s12" kvg:type="㇐b" d="M57.36,58.97c5.24-0.34,16.66-1.33,25.14-2.03c1.41-0.12,2.74-0.22,3.95-0.32" />
				</g>
				<g id="kvg:08aac-g9" kvg:element="儿" kvg:original="八" kvg:position="bottom">
					<path id="kvg:08aac-s13" kvg:type="㇒" d="M62.96,64.66c0.06,0.74,0.15,1.93-0.11,2.99C61.12,74.5,54,87.88,42.64,96.22" />
					<path id="kvg:08aac-s14" kvg:type="㇟" d="M73.14,60.29c1.03,1.03,1.29,2.12,1.31,3.99c0.07,5.13-0.24,12.35-0.24,18.71c0,10.25,1.29,11.76,12.16,11.76c9.87,0,10.62-2,10.62-7.99" />
				</g>
			</g>
		</g>
	</g>
	<g id="kvg:StrokeNumbers_08aac" style="font-size:8;fill:#808080">
		<text transform="matrix(1 0 0 1 45.50 17.50)">1</text>
		<text transform="matrix(1 0 0 1 77.50 14.50)">2</text>
		<text transform="matrix(1 0 0 1 43.50 47.50)">3</text>
		<text transform="matrix(1 0 0 1 50.25 37.63)">4</text>
		<text transform="matrix(1 0 0 1 59.50 55.50)">5</text>
		<text transform="matrix(1 0 0 1 51.50 70.50)">6</text>
		<text transform="matrix(1 0 0 1 77.50 69.50)">7</text>
	</g>
</svg>