<?xml version="1.0" encoding="UTF-8"?>
<!--
Copyright (C) 2009/2010/2011 Ulrich Apel.
This work is distributed under the conditions of the Creative Commons
Attribution-Share Alike 3.0 Licence. This means you are free:
* to Share - to copy, distribute and transmit the work
* to Remix - to adapt the work

Under the following conditions:
* Attribution. You must attribute the work by stating your use of KanjiVG in
  your own copyright header and linking to KanjiVG's website
  (http://kanjivg.tagaini.net)
* Share Alike. If you alter, transform, or build upon this work, you may
  distribute the resulting work only under the same or similar license to this
  one.

See http://creativecommons.org/licenses/by-sa/3.0/ for more details.
-->
<!DOCTYPE svg PUBLIC "-//W3C//DTD SVG 1.0//EN" "http://www.w3.org/TR/2001/REC-SVG-20010904/DTD/svg10.dtd" [
	<!ATTLIST g
		xmlns:kvg CDATA #FIXED "http://kanjivg.tagaini.net"
		kvg:element CDATA #IMPLIED
		kvg:variant CDATA #IMPLIED
		kvg:partial CDATA #IMPLIED
		kvg:original CDATA #IMPLIED
		kvg:part CDATA #IMPLIED
		kvg:number CDATA #IMPLIED
		kvg:tradForm CDATA #IMPLIED
		kvg:radicalForm CDATA #IMPLIED
		kvg:position CDATA #IMPLIED
		kvg:radical CDATA #IMPLIED
		kvg:phon CDATA #IMPLIED >
	<!ATTLIST path
		xmlns:kvg CDATA #FIXED "http://kanjivg.tagaini.net"
		kvg:type CDATA #IMPLIED >
]>
<svg xmlns="http://www.w3.org/2000/svg" width="109" height="109" viewBox="0 0 109 109">
	<g id="kvg:StrokePaths_069d8" style="fill:none;stroke:#000000;stroke-width:3;stroke-linecap:round;stroke-linejoin:round;">
		<g kvg:element="兰">
			<g kvg:element="丷" kvg:position="top">
				<path id="kvg:069d8-s5" kvg:type="㇔" d="M54.52,13.83c3.1,1.66,8.02,6.81,8.79,9.38" />
				<path id="kvg:069d8-s6" kvg:type="㇒" d="M83.52,11.39c0.04,0.37,0.07,0.96-0.07,1.49c-0.7,2.6-3.57,7.24-8.57,12.12" />
			</g>
			<g kvg:element="三" kvg:position="bottom">
				<path id="kvg:069d8-s7" kvg:type="㇐" d="M49.5,30.14c2.38,0.49,4.8,0.25,7,0.01c6.9-0.76,19.36-2.1,26.49-2.72c2.37-0.21,5.38-0.17,7.5,0.09" />
				<path id="kvg:069d8-s8" kvg:type="㇐" d="M52.25,41.81c1.71,0.59,4.13,0.46,5.88,0.32c6.25-0.51,16.62-1.51,23.63-2.59c2.09-0.32,4.62-0.54,6.5-0.2" />
				<path id="kvg:069d8-s9" kvg:type="㇐" d="M47.5,54.39c2.62,0.36,5.06,0.22,7.36,0c8.21-0.8,24.79-2.29,33.27-2.96c2.49-0.19,5.24-0.31,8.12,0.08" />
			</g>
		</g>
	</g>
	<g id="kvg:StrokeNumbers_069d8" style="font-size:8;fill:#808080">
		<text transform="matrix(1 0 0 1 47.50 14.50)">1</text>
		<text transform="matrix(1 0 0 1 75.50 11.50)">2</text>
		<text transform="matrix(1 0 0 1 47.25 27.50)">3</text>
		<text transform="matrix(1 0 0 1 47.25 39.50)">4</text>
		<text transform="matrix(1 0 0 1 46.50 51.50)">5</text>
	</g>
</svg>