<?xml version="1.0" encoding="UTF-8"?>
<!--
Copyright (C) 2009/2010/2011 Ulrich Apel.
This work is distributed under the conditions of the Creative Commons
Attribution-Share Alike 3.0 Licence. This means you are free:
* to Share - to copy, distribute and transmit the work
* to Remix - to adapt the work

Under the following conditions:
* Attribution. You must attribute the work by stating your use of KanjiVG in
  your own copyright header and linking to KanjiVG's website
  (http://kanjivg.tagaini.net)
* Share Alike. If you alter, transform, or build upon this work, you may
  distribute the resulting work only under the same or similar license to this
  one.

See http://creativecommons.org/licenses/by-sa/3.0/ for more details.
-->
<!DOCTYPE svg PUBLIC "-//W3C//DTD SVG 1.0//EN" "http://www.w3.org/TR/2001/REC-SVG-20010904/DTD/svg10.dtd" [
	<!ATTLIST g
		xmlns:kvg CDATA #FIXED "http://kanjivg.tagaini.net"
		kvg:element CDATA #IMPLIED
		kvg:variant CDATA #IMPLIED
		kvg:partial CDATA #IMPLIED
		kvg:original CDATA #IMPLIED
		kvg:part CDATA #IMPLIED
		kvg:number CDATA #IMPLIED
		kvg:tradForm CDATA #IMPLIED
		kvg:radicalForm CDATA #IMPLIED
		kvg:position CDATA #IMPLIED
		kvg:radical CDATA #IMPLIED
		kvg:phon CDATA #IMPLIED >
	<!ATTLIST path
		xmlns:kvg CDATA #FIXED "http://kanjivg.tagaini.net"
		kvg:type CDATA #IMPLIED >
]>
<svg xmlns="http://www.w3.org/2000/svg" width="109" height="109" viewBox="0 0 109 109">
	<g id="kvg:StrokePaths_05c1a" style="fill:none;stroke:#000000;stroke-width:3;stroke-linecap:round;stroke-linejoin:round;">
		<g id="kvg:05c1a-g2" kvg:element="冋">
			<g id="kvg:05c1a-g3" kvg:element="冂">
				<path id="kvg:05c1a-s4" kvg:type="㇑" d="M20.75,46.5c1,1,1.5,2.38,1.55,4.15c0.15,4.88,1.07,24.37,1.46,36.6c0.1,3.08,0.18,5.69,0.23,7.5" />
				<path id="kvg:05c1a-s5" kvg:type="㇆a" d="M23.24,48.93c16.64-1.05,45.48-3.54,61.76-4.71c4.42-0.32,6.65,0.54,6.4,5.28c-0.47,8.96-2.88,28.94-5.9,39.5c-2,7-4,5.25-8,0.75" />
			</g>
			<g id="kvg:05c1a-g4" kvg:element="口">
				<path id="kvg:05c1a-s6" kvg:type="㇑" d="M37.25,61.88c0.87,0.45,1.25,1.25,1.54,2.46c0.73,3.09,1.99,9.02,3.07,13.76c0.53,2.34,0.99,4.33,1.27,5.41" />
				<path id="kvg:05c1a-s7" kvg:type="㇕b" d="M40.1,63.32c3.74-0.38,20.17-2.05,26.19-2.72c3.1-0.35,5.25,0.12,4.21,3.9c-0.68,2.48-2,7.25-3.38,12.56" />
				<path id="kvg:05c1a-s8" kvg:type="㇐b" d="M43.44,80.46c5.44-0.59,13.76-1.38,21.32-1.99c1.55-0.13,3.08-0.24,4.54-0.35" />
			</g>
		</g>
	</g>
	<g id="kvg:StrokeNumbers_05c1a" style="font-size:8;fill:#808080">
		<text transform="matrix(1 0 0 1 13.50 55.63)">1</text>
		<text transform="matrix(1 0 0 1 24.75 45.13)">2</text>
		<text transform="matrix(1 0 0 1 32.25 72.13)">3</text>
		<text transform="matrix(1 0 0 1 42.75 60.13)">4</text>
		<text transform="matrix(1 0 0 1 46.50 77.50)">5</text>
	</g>
</svg>