<?xml version="1.0" encoding="UTF-8"?>
<!--
Copyright (C) 2009/2010/2011 Ulrich Apel.
This work is distributed under the conditions of the Creative Commons
Attribution-Share Alike 3.0 Licence. This means you are free:
* to Share - to copy, distribute and transmit the work
* to Remix - to adapt the work

Under the following conditions:
* Attribution. You must attribute the work by stating your use of KanjiVG in
  your own copyright header and linking to KanjiVG's website
  (http://kanjivg.tagaini.net)
* Share Alike. If you alter, transform, or build upon this work, you may
  distribute the resulting work only under the same or similar license to this
  one.

See http://creativecommons.org/licenses/by-sa/3.0/ for more details.
-->
<!DOCTYPE svg PUBLIC "-//W3C//DTD SVG 1.0//EN" "http://www.w3.org/TR/2001/REC-SVG-20010904/DTD/svg10.dtd" [
	<!ATTLIST g
		xmlns:kvg CDATA #FIXED "http://kanjivg.tagaini.net"
		kvg:element CDATA #IMPLIED
		kvg:variant CDATA #IMPLIED
		kvg:partial CDATA #IMPLIED
		kvg:original CDATA #IMPLIED
		kvg:part CDATA #IMPLIED
		kvg:number CDATA #IMPLIED
		kvg:tradForm CDATA #IMPLIED
		kvg:radicalForm CDATA #IMPLIED
		kvg:position CDATA #IMPLIED
		kvg:radical CDATA #IMPLIED
		kvg:phon CDATA #IMPLIED >
	<!ATTLIST path
		xmlns:kvg CDATA #FIXED "http://kanjivg.tagaini.net"
		kvg:type CDATA #IMPLIED >
]>
<svg xmlns="http://www.w3.org/2000/svg" width="109" height="109" viewBox="0 0 109 109">
	<g id="kvg:StrokePaths_055aa" style="fill:none;stroke:#000000;stroke-width:3;stroke-linecap:round;stroke-linejoin:round;">
		<g kvg:element="吅">
			<g kvg:position="left" id="kvg:055aa-g4" kvg:element="口" kvg:radical="tradit">
				<path id="kvg:055aa-s3" kvg:type="㇑" d="M23.89,37.89c0.86,0.61,1.46,1.71,1.76,2.81c0.86,3.17,1.61,5.3,2.27,7.77c0.28,1.03,0.41,2.07,0.6,3.03" />
				<path id="kvg:055aa-s4" kvg:type="㇕b" d="M25.8,38.66c5.65-0.89,10.12-1.65,14.59-2.26c2.54-0.35,4.7-0.6,3.75,2.52c-0.65,2.13-1.31,3.45-2.48,7.72" />
				<path id="kvg:055aa-s5" kvg:type="㇐b" d="M29.5,48.88c4.5-0.4,6.71-0.9,10.48-1.31c0.98-0.11,2.04-0.21,3.25-0.3" />
			</g>
			<g kvg:position="right" id="kvg:055aa-g5" kvg:element="口" kvg:radical="tradit">
				<path id="kvg:055aa-s6" kvg:type="㇑" d="M61.64,34.14c0.71,0.52,0.99,1.24,1.4,2.38c0.76,2.12,1.47,4.89,2.08,7.96c0.22,1.13,0.44,2.24,0.65,3.27" />
				<path id="kvg:055aa-s7" kvg:type="㇕b" d="M63.3,34.66c6.02-0.91,10.42-1.55,14.97-2.08c2.2-0.25,4.24-0.43,3.46,2.32c-0.67,2.39-1.35,4.28-2.57,8.73" />
				<path id="kvg:055aa-s8" kvg:type="㇐b" d="M66.4,45.67c4.45-0.53,7.39-0.89,11.12-1.31c0.97-0.11,2.02-0.22,3.21-0.35" />
			</g>
		</g>
	</g>
	<g id="kvg:StrokeNumbers_055aa" style="font-size:8;fill:#808080">
		<text transform="matrix(1 0 0 1 18.75 45.50)">3</text>
		<text transform="matrix(1 0 0 1 28.50 35.50)">4</text>
		<text transform="matrix(1 0 0 1 30.50 46.55)">5</text>
		<text transform="matrix(1 0 0 1 57.50 42.50)">6</text>
		<text transform="matrix(1 0 0 1 65.50 31.63)">7</text>
		<text transform="matrix(1 0 0 1 68.50 42.50)">8</text>
	</g>
</svg>