<?xml version="1.0" encoding="UTF-8"?>
<!--
Copyright (C) 2009/2010/2011 Ulrich Apel.
This work is distributed under the conditions of the Creative Commons
Attribution-Share Alike 3.0 Licence. This means you are free:
* to Share - to copy, distribute and transmit the work
* to Remix - to adapt the work

Under the following conditions:
* Attribution. You must attribute the work by stating your use of KanjiVG in
  your own copyright header and linking to KanjiVG's website
  (http://kanjivg.tagaini.net)
* Share Alike. If you alter, transform, or build upon this work, you may
  distribute the resulting work only under the same or similar license to this
  one.

See http://creativecommons.org/licenses/by-sa/3.0/ for more details.
-->
<!DOCTYPE svg PUBLIC "-//W3C//DTD SVG 1.0//EN" "http://www.w3.org/TR/2001/REC-SVG-20010904/DTD/svg10.dtd" [
	<!ATTLIST g
		xmlns:kvg CDATA #FIXED "http://kanjivg.tagaini.net"
		kvg:element CDATA #IMPLIED
		kvg:variant CDATA #IMPLIED
		kvg:partial CDATA #IMPLIED
		kvg:original CDATA #IMPLIED
		kvg:part CDATA #IMPLIED
		kvg:number CDATA #IMPLIED
		kvg:tradForm CDATA #IMPLIED
		kvg:radicalForm CDATA #IMPLIED
		kvg:position CDATA #IMPLIED
		kvg:radical CDATA #IMPLIED
		kvg:phon CDATA #IMPLIED >
	<!ATTLIST path
		xmlns:kvg CDATA #FIXED "http://kanjivg.tagaini.net"
		kvg:type CDATA #IMPLIED >
]>
<svg xmlns="http://www.w3.org/2000/svg" width="109" height="109" viewBox="0 0 109 109">
	<g id="kvg:StrokePaths_06570" style="fill:none;stroke:#000000;stroke-width:3;stroke-linecap:round;stroke-linejoin:round;">
		<g id="kvg:06570-g1" kvg:element="娄">
			<g kvg:position="top" kvg:element="米" kvg:variant="true">
				<path id="kvg:06570-s1" kvg:type="㇔" d="M17.25,21.5c2.36,1.58,5.91,6.04,6.5,8.5" />
				<path id="kvg:06570-s2" kvg:type="㇒" d="M48.48,17.57c0.06,0.62-0.03,1.2-0.29,1.75c-0.89,2.29-3.56,6.19-7.07,8.68" />
				<path id="kvg:06570-s3" kvg:type="㇐" d="M13.25,36.5c2,0.38,3.64,0.22,5.61,0c6.89-0.75,21.23-3.02,27.43-3.02c1.98,0,2.48-0.21,3.72,0" />
				<path id="kvg:06570-s4" kvg:type="㇑" d="M31.74,14.25c0.88,0.88,1.55,1.88,1.55,3.25c0,0.87-0.1,23.62-0.1,33.25c0,1.59-0.05,2.88-0.07,3.75" />
				<path id="kvg:06570-s5" kvg:type="㇒" d="M32.5,35c0,1-0.59,1.94-0.93,2.65c-3.29,6.89-9.2,13.04-15.32,17.35" />
				<path id="kvg:06570-s6" kvg:type="㇔/㇏" d="M36.5,41c3.5,1.25,8.75,4.75,11.25,8.25" />
			</g>
			<g kvg:position="bottom" kvg:element="女">
				<path id="kvg:06570-s7" kvg:type="㇛" d="M30.25,58.25c0.38,0.75,0.57,1.99,0.38,3.08c-0.97,5.36-4.48,12-8.75,18.27c-0.88,1.29,0.37,1.86,0.88,1.91c5.52,0.47,13.59,2.71,18.64,5.77c1.72,1.04,3.15,2.21,4.11,3.48" />
				<path id="kvg:06570-s8" kvg:type="㇒" d="M44,63.25c0.75,1.25,0.64,3.02,0.33,4.14c-2.52,9.05-9.8,22.38-27.83,29.11" />
				<path id="kvg:06570-s9" kvg:type="㇀/㇐" d="M13.5,70.4c0.75,0.69,1.75,1.13,3.75,0.94c3.75-0.35,23.09-3.49,32-5.25" />
			</g>
		</g>
	</g>
	<g id="kvg:StrokeNumbers_06570" style="font-size:8;fill:#808080">
		<text transform="matrix(1 0 0 1 9.75 22.63)">1</text>
		<text transform="matrix(1 0 0 1 45.75 13.63)">2</text>
		<text transform="matrix(1 0 0 1 5.25 37.63)">3</text>
		<text transform="matrix(1 0 0 1 26.25 10.63)">4</text>
		<text transform="matrix(1 0 0 1 18.75 46.63)">5</text>
		<text transform="matrix(1 0 0 1 45.75 43.63)">6</text>
		<text transform="matrix(1 0 0 1 23.25 61.63)">7</text>
		<text transform="matrix(1 0 0 1 40.50 59.63)">8</text>
		<text transform="matrix(1 0 0 1 6.00 69.63)">9</text>
	</g>
</svg>