<?xml version="1.0" encoding="UTF-8"?>
<!--
Copyright (C) 2009/2010/2011 Ulrich Apel.
This work is distributed under the conditions of the Creative Commons
Attribution-Share Alike 3.0 Licence. This means you are free:
* to Share - to copy, distribute and transmit the work
* to Remix - to adapt the work

Under the following conditions:
* Attribution. You must attribute the work by stating your use of KanjiVG in
  your own copyright header and linking to KanjiVG's website
  (http://kanjivg.tagaini.net)
* Share Alike. If you alter, transform, or build upon this work, you may
  distribute the resulting work only under the same or similar license to this
  one.

See http://creativecommons.org/licenses/by-sa/3.0/ for more details.
-->
<!DOCTYPE svg PUBLIC "-//W3C//DTD SVG 1.0//EN" "http://www.w3.org/TR/2001/REC-SVG-20010904/DTD/svg10.dtd" [
	<!ATTLIST g
		xmlns:kvg CDATA #FIXED "http://kanjivg.tagaini.net"
		kvg:element CDATA #IMPLIED
		kvg:variant CDATA #IMPLIED
		kvg:partial CDATA #IMPLIED
		kvg:original CDATA #IMPLIED
		kvg:part CDATA #IMPLIED
		kvg:number CDATA #IMPLIED
		kvg:tradForm CDATA #IMPLIED
		kvg:radicalForm CDATA #IMPLIED
		kvg:position CDATA #IMPLIED
		kvg:radical CDATA #IMPLIED
		kvg:phon CDATA #IMPLIED >
	<!ATTLIST path
		xmlns:kvg CDATA #FIXED "http://kanjivg.tagaini.net"
		kvg:type CDATA #IMPLIED >
]>
<svg xmlns="http://www.w3.org/2000/svg" width="109" height="109" viewBox="0 0 109 109">
	<g id="kvg:StrokePaths_09006" style="fill:none;stroke:#000000;stroke-width:3;stroke-linecap:round;stroke-linejoin:round;">
		<g id="kvg:09006-g1" kvg:element="屰" kvg:position="nyoc" kvg:phon="1+4+2+屮">
			<g kvg:position="top" kvg:element="䒑">
				<path id="kvg:09006-s1" kvg:type="㇔" d="M46.39,15.81c3.2,2.12,7.61,7.07,9.07,11.99" />
				<path id="kvg:09006-s2" kvg:type="㇒" d="M78.53,13.29c0.06,0.85-0.13,1.76-0.48,2.53c-1.75,3.89-4.84,8.5-9.94,14.25" />
				<path id="kvg:09006-s3" kvg:type="㇐" d="M40.75,35.39c2.75,0.49,4.9,0.32,7.14-0.06c9.36-1.58,26.25-3.84,34.63-4.84c2.13-0.25,4.4-0.49,6.48,0.02" />
			</g>
			<g id="kvg:09006-g2" kvg:element="屮">
				<g id="kvg:09006-g3" kvg:element="凵">
					<path id="kvg:09006-s4" kvg:type="㇗a" d="M47.05,46.58c0.75,0.75,0.98,2.19,0.75,3.63c-0.67,4.16-1.21,9.87-1.39,11.85c-0.14,1.54,0.24,2.63,1.79,2.25c10.56-2.57,22.56-4.82,33.29-5.47" />
					<path id="kvg:09006-s5" kvg:type="㇑" d="M82.85,39.91c0.81,0.81,1.03,1.84,1,2.86c-0.08,2.35-0.55,9.08-1,14.73c-0.17,2.12-0.33,4.09-0.47,5.62" />
				</g>
				<g id="kvg:09006-g4" kvg:element="丿">
					<path id="kvg:09006-s6" kvg:type="㇒" d="M64.53,35.62C65.39,36.48,66,38,66,39.38c0,27.37-1.75,34.75-10.52,44.21" />
				</g>
			</g>
		</g>
	</g>
	<g id="kvg:StrokeNumbers_09006" style="font-size:8;fill:#808080">
		<text transform="matrix(1 0 0 1 40.50 16.50)">1</text>
		<text transform="matrix(1 0 0 1 69.50 13.50)">2</text>
		<text transform="matrix(1 0 0 1 33.49 37.50)">3</text>
		<text transform="matrix(1 0 0 1 39.50 47.50)">4</text>
		<text transform="matrix(1 0 0 1 75.50 45.13)">5</text>
		<text transform="matrix(1 0 0 1 57.75 43.63)">6</text>
		<text transform="matrix(1 0 0 1 9.75 20.63)">7</text>
		<text transform="matrix(1 0 0 1 3.75 55.50)">8</text>
		<text transform="matrix(1 0 0 1 5.25 85.63)">9</text>
	</g>
</svg>