<?xml version="1.0" encoding="UTF-8"?>
<!--
Copyright (C) 2009/2010/2011 Ulrich Apel.
This work is distributed under the conditions of the Creative Commons
Attribution-Share Alike 3.0 Licence. This means you are free:
* to Share - to copy, distribute and transmit the work
* to Remix - to adapt the work

Under the following conditions:
* Attribution. You must attribute the work by stating your use of KanjiVG in
  your own copyright header and linking to KanjiVG's website
  (http://kanjivg.tagaini.net)
* Share Alike. If you alter, transform, or build upon this work, you may
  distribute the resulting work only under the same or similar license to this
  one.

See http://creativecommons.org/licenses/by-sa/3.0/ for more details.
-->
<!DOCTYPE svg PUBLIC "-//W3C//DTD SVG 1.0//EN" "http://www.w3.org/TR/2001/REC-SVG-20010904/DTD/svg10.dtd" [
	<!ATTLIST g
		xmlns:kvg CDATA #FIXED "http://kanjivg.tagaini.net"
		kvg:element CDATA #IMPLIED
		kvg:variant CDATA #IMPLIED
		kvg:partial CDATA #IMPLIED
		kvg:original CDATA #IMPLIED
		kvg:part CDATA #IMPLIED
		kvg:number CDATA #IMPLIED
		kvg:tradForm CDATA #IMPLIED
		kvg:radicalForm CDATA #IMPLIED
		kvg:position CDATA #IMPLIED
		kvg:radical CDATA #IMPLIED
		kvg:phon CDATA #IMPLIED >
	<!ATTLIST path
		xmlns:kvg CDATA #FIXED "http://kanjivg.tagaini.net"
		kvg:type CDATA #IMPLIED >
]>
<svg xmlns="http://www.w3.org/2000/svg" width="109" height="109" viewBox="0 0 109 109">
	<g id="kvg:StrokePaths_09b3c" style="fill:none;stroke:#000000;stroke-width:3;stroke-linecap:round;stroke-linejoin:round;">
		<g id="kvg:09b3c-g1" kvg:element="甶">
			<path id="kvg:09b3c-s1" kvg:type="㇒" d="M50.85,11.25c0.08,1.12-0.04,1.7-0.53,2.73C47.86,19.2,46,21.62,40.25,27.75" />
			<g id="kvg:09b3c-g3" kvg:element="田" kvg:position="bottom">
				<path id="kvg:09b3c-s2" kvg:type="㇑" d="M25.83,30.12c0.78,0.78,1.43,2.19,1.58,3c1.22,6.88,2.46,13.28,3.36,21.33c0.22,2,0.42,3.98,0.59,5.87" />
				<path id="kvg:09b3c-s3" kvg:type="㇕a" d="M28.17,31.95c12.95-1.7,31.45-4.7,42.95-5.53c3.28-0.24,4.63,1.83,4.28,4.12c-0.7,4.57-2.19,11.16-5.08,19.48c-0.51,1.47-1.07,3.01-1.69,4.61" />
				<path id="kvg:09b3c-s4" kvg:type="㇑a" d="M49.58,30.87c0.65,0.65,1.03,1.88,1.03,3.07c0,8.31-0.05,15.87,0,19.13" />
				<path id="kvg:09b3c-s5" kvg:type="㇐a" d="M30.56,44.82c8.57-1.57,34.19-4.57,41.65-5.12" />
				<path id="kvg:09b3c-s6" kvg:type="㇐a" d="M32.23,56.89c13.52-2.14,23.52-3.64,36.49-5.12" />
			</g>
		</g>
	</g>
	<g id="kvg:StrokeNumbers_09b3c" style="font-size:8;fill:#808080">
		<text transform="matrix(1 0 0 1 42.50 9.13)">1</text>
		<text transform="matrix(1 0 0 1 20.25 37.50)">2</text>
		<text transform="matrix(1 0 0 1 28.50 28.50)">3</text>
		<text transform="matrix(1 0 0 1 43.50 37.63)">4</text>
		<text transform="matrix(1 0 0 1 34.50 41.50)">5</text>
		<text transform="matrix(1 0 0 1 34.50 53.98)">6</text>
	</g>
</svg>