<?xml version="1.0" encoding="UTF-8"?>
<!--
Copyright (C) 2009/2010/2011 Ulrich Apel.
This work is distributed under the conditions of the Creative Commons
Attribution-Share Alike 3.0 Licence. This means you are free:
* to Share - to copy, distribute and transmit the work
* to Remix - to adapt the work

Under the following conditions:
* Attribution. You must attribute the work by stating your use of KanjiVG in
  your own copyright header and linking to KanjiVG's website
  (http://kanjivg.tagaini.net)
* Share Alike. If you alter, transform, or build upon this work, you may
  distribute the resulting work only under the same or similar license to this
  one.

See http://creativecommons.org/licenses/by-sa/3.0/ for more details.
-->
<!DOCTYPE svg PUBLIC "-//W3C//DTD SVG 1.0//EN" "http://www.w3.org/TR/2001/REC-SVG-20010904/DTD/svg10.dtd" [
	<!ATTLIST g
		xmlns:kvg CDATA #FIXED "http://kanjivg.tagaini.net"
		kvg:element CDATA #IMPLIED
		kvg:variant CDATA #IMPLIED
		kvg:partial CDATA #IMPLIED
		kvg:original CDATA #IMPLIED
		kvg:part CDATA #IMPLIED
		kvg:number CDATA #IMPLIED
		kvg:tradForm CDATA #IMPLIED
		kvg:radicalForm CDATA #IMPLIED
		kvg:position CDATA #IMPLIED
		kvg:radical CDATA #IMPLIED
		kvg:phon CDATA #IMPLIED >
	<!ATTLIST path
		xmlns:kvg CDATA #FIXED "http://kanjivg.tagaini.net"
		kvg:type CDATA #IMPLIED >
]>
<svg xmlns="http://www.w3.org/2000/svg" width="109" height="109" viewBox="0 0 109 109">
	<g id="kvg:StrokePaths_09f3b" style="fill:none;stroke:#000000;stroke-width:3;stroke-linecap:round;stroke-linejoin:round;">
		<g id="kvg:09f3b-g3" kvg:element="畀" kvg:position="bottom" kvg:phon="畀">
			<g id="kvg:09f3b-g4" kvg:element="田">
				<path id="kvg:09f3b-s7" kvg:type="㇑" d="M31.74,50.9c0.68,0.68,1.13,1.47,1.28,2.14c0.8,3.7,1.5,8.38,2.49,13.83c0.16,0.91,0.34,1.83,0.52,2.78" />
				<path id="kvg:09f3b-s8" kvg:type="㇕a" d="M33.83,52.08c13.42-1.2,32-2.59,40.87-3.24c3.26-0.24,4.55,1.41,4.05,4.41c-0.45,2.7-1.95,7.33-3.17,11.74c-0.21,0.76-0.42,1.52-0.6,2.26" />
				<path id="kvg:09f3b-s9" kvg:type="㇑a" d="M53.4,51.64c0.48,0.49,0.75,1.01,0.75,1.74c-0.01,4.19-0.04,11.68-0.04,13" />
				<path id="kvg:09f3b-s10" kvg:type="㇐a" d="M35.72,59.66c3.87-0.3,37.37-2.52,40.57-2.64" />
				<path id="kvg:09f3b-s11" kvg:type="㇐a" d="M36.9,68.55c9.85-0.8,25.37-1.77,37.17-2.31" />
			</g>
			<g id="kvg:09f3b-g5" kvg:element="廾">
				<g id="kvg:09f3b-g6" kvg:element="十" kvg:part="1">
					<path id="kvg:09f3b-s12" kvg:type="㇐" d="M15.63,81.24c2.33,0.64,6.62,0.86,8.95,0.64c18.92-1.79,44.25-3.51,61.26-4.21c3.88-0.16,6.22,0.01,8.17,0.33" />
				</g>
				<g id="kvg:09f3b-g7" kvg:element="丿">
					<path id="kvg:09f3b-s13" kvg:type="㇒" d="M44.5,71.25c0.75,1,0.72,1.91,0.72,2.92C45.22,85.5,42.5,94.75,31,100" />
				</g>
				<g id="kvg:09f3b-g8" kvg:element="十" kvg:part="2">
					<path id="kvg:09f3b-s14" kvg:type="㇑" d="M65.38,69.66c0.86,0.86,1.22,1.92,1.22,2.69c0,2.5-0.11,15.52-0.15,23.16c-0.01,1.63-0.01,3.01-0.01,4" />
				</g>
			</g>
		</g>
	</g>
	<g id="kvg:StrokeNumbers_09f3b" style="font-size:8;fill:#808080">
		<text transform="matrix(1 0 0 1 46.50 8.50)">1</text>
		<text transform="matrix(1 0 0 1 33.50 27.13)">2</text>
		<text transform="matrix(1 0 0 1 40.50 17.50)">3</text>
		<text transform="matrix(1 0 0 1 45.75 25.50)">4</text>
		<text transform="matrix(1 0 0 1 45.91 33.50)">5</text>
		<text transform="matrix(1 0 0 1 45.79 41.50)">6</text>
		<text transform="matrix(1 0 0 1 26.25 60.50)">7</text>
		<text transform="matrix(1 0 0 1 33.75 49.50)">8</text>
		<text transform="matrix(1 0 0 1 57.50 56.50)">9</text>
		<text transform="matrix(1 0 0 1 38.50 57.50)">10</text>
		<text transform="matrix(1 0 0 1 38.73 66.13)">11</text>
		<text transform="matrix(1 0 0 1 5.50 84.13)">12</text>
		<text transform="matrix(1 0 0 1 33.50 78.80)">13</text>
		<text transform="matrix(1 0 0 1 55.50 76.63)">14</text>
	</g>
</svg>