<?xml version="1.0" encoding="UTF-8"?>
<!--
Copyright (C) 2009/2010/2011 Ulrich Apel.
This work is distributed under the conditions of the Creative Commons
Attribution-Share Alike 3.0 Licence. This means you are free:
* to Share - to copy, distribute and transmit the work
* to Remix - to adapt the work

Under the following conditions:
* Attribution. You must attribute the work by stating your use of KanjiVG in
  your own copyright header and linking to KanjiVG's website
  (http://kanjivg.tagaini.net)
* Share Alike. If you alter, transform, or build upon this work, you may
  distribute the resulting work only under the same or similar license to this
  one.

See http://creativecommons.org/licenses/by-sa/3.0/ for more details.
-->
<!DOCTYPE svg PUBLIC "-//W3C//DTD SVG 1.0//EN" "http://www.w3.org/TR/2001/REC-SVG-20010904/DTD/svg10.dtd" [
	<!ATTLIST g
		xmlns:kvg CDATA #FIXED "http://kanjivg.tagaini.net"
		kvg:element CDATA #IMPLIED
		kvg:variant CDATA #IMPLIED
		kvg:partial CDATA #IMPLIED
		kvg:original CDATA #IMPLIED
		kvg:part CDATA #IMPLIED
		kvg:number CDATA #IMPLIED
		kvg:tradForm CDATA #IMPLIED
		kvg:radicalForm CDATA #IMPLIED
		kvg:position CDATA #IMPLIED
		kvg:radical CDATA #IMPLIED
		kvg:phon CDATA #IMPLIED >
	<!ATTLIST path
		xmlns:kvg CDATA #FIXED "http://kanjivg.tagaini.net"
		kvg:type CDATA #IMPLIED >
]>
<svg xmlns="http://www.w3.org/2000/svg" width="109" height="109" viewBox="0 0 109 109">
	<g id="kvg:StrokePaths_07d79" style="fill:none;stroke:#000000;stroke-width:3;stroke-linecap:round;stroke-linejoin:round;">
		<g id="kvg:07d79-g2" kvg:element="肙" kvg:phon="肙">
			<g id="kvg:07d79-g3" kvg:element="口" kvg:position="top">
				<path id="kvg:07d79-s7" kvg:type="㇑" d="M55.21,15.98c0.71,0.71,1.16,1.52,1.33,2.35c0.89,4.31,1.79,8.89,2.5,13.41c0.21,1.34,0.41,2.61,0.58,3.72" />
				<path id="kvg:07d79-s8" kvg:type="㇕b" d="M57.17,17.54c7.81-1.16,22.21-2.44,28.33-3c2.84-0.26,4.62,0.51,3.78,3.6c-0.95,3.46-1.91,6.36-3.59,12.02" />
				<path id="kvg:07d79-s9" kvg:type="㇐b" d="M60.48,33.44c4.36-0.41,15.32-1.55,23.78-2.05c1.76-0.1,3.39-0.19,4.83-0.25" />
			</g>
			<g id="kvg:07d79-g4" kvg:element="⿛" kvg:position="bottom">
				<path id="kvg:07d79-s10" kvg:type="㇑" d="M56.74,44.03c0.87,0.87,1.46,1.85,1.46,3.18c0,5.67-0.02,28.42-0.02,40.55c0,3.42-0.01,5.74-0.03,6.13" />
				<path id="kvg:07d79-s11" kvg:type="㇆a" d="M59.16,46.09c2.43-0.2,24.45-2.37,26.26-2.6c3.24-0.4,4.55,0.88,4.55,3.6c0,5.91-0.11,24.61-0.11,41.01c0,10.52-5.61,2.39-7.63,0.57" />
				<path id="kvg:07d79-s12" kvg:type="㇐a" d="M59.41,59.92c8.34-0.54,22.36-1.79,29.64-2.39" />
				<path id="kvg:07d79-s13" kvg:type="㇐a" d="M59.27,72.66c6.48-0.61,22.39-1.93,29.88-2.33" />
			</g>
		</g>
	</g>
	<g id="kvg:StrokeNumbers_07d79" style="font-size:8;fill:#808080">
		<text transform="matrix(1 0 0 1 26.75 13.92)">1</text>
		<text transform="matrix(1 0 0 1 36.75 27.48)">2</text>
		<text transform="matrix(1 0 0 1 40.25 46.25)">3</text>
		<text transform="matrix(1 0 0 1 26.00 68.25)">4</text>
		<text transform="matrix(1 0 0 1 15.25 72.25)">5</text>
		<text transform="matrix(1 0 0 1 39.00 66.25)">6</text>
		<text transform="matrix(1 0 0 1 49.25 24.25)">7</text>
		<text transform="matrix(1 0 0 1 57.25 14.25)">8</text>
		<text transform="matrix(1 0 0 1 63.25 30.48)">9</text>
		<text transform="matrix(1 0 0 1 47.75 52.92)">10</text>
		<text transform="matrix(1 0 0 1 61.00 43.25)">11</text>
		<text transform="matrix(1 0 0 1 63.00 56.25)">12</text>
		<text transform="matrix(1 0 0 1 63.00 69.68)">13</text>
	</g>
</svg>