<?xml version="1.0" encoding="UTF-8"?>
<!--
Copyright (C) 2009/2010/2011 Ulrich Apel.
This work is distributed under the conditions of the Creative Commons
Attribution-Share Alike 3.0 Licence. This means you are free:
* to Share - to copy, distribute and transmit the work
* to Remix - to adapt the work

Under the following conditions:
* Attribution. You must attribute the work by stating your use of KanjiVG in
  your own copyright header and linking to KanjiVG's website
  (http://kanjivg.tagaini.net)
* Share Alike. If you alter, transform, or build upon this work, you may
  distribute the resulting work only under the same or similar license to this
  one.

See http://creativecommons.org/licenses/by-sa/3.0/ for more details.
-->
<!DOCTYPE svg PUBLIC "-//W3C//DTD SVG 1.0//EN" "http://www.w3.org/TR/2001/REC-SVG-20010904/DTD/svg10.dtd" [
	<!ATTLIST g
		xmlns:kvg CDATA #FIXED "http://kanjivg.tagaini.net"
		kvg:element CDATA #IMPLIED
		kvg:variant CDATA #IMPLIED
		kvg:partial CDATA #IMPLIED
		kvg:original CDATA #IMPLIED
		kvg:part CDATA #IMPLIED
		kvg:number CDATA #IMPLIED
		kvg:tradForm CDATA #IMPLIED
		kvg:radicalForm CDATA #IMPLIED
		kvg:position CDATA #IMPLIED
		kvg:radical CDATA #IMPLIED
		kvg:phon CDATA #IMPLIED >
	<!ATTLIST path
		xmlns:kvg CDATA #FIXED "http://kanjivg.tagaini.net"
		kvg:type CDATA #IMPLIED >
]>
<svg xmlns="http://www.w3.org/2000/svg" width="109" height="109" viewBox="0 0 109 109">
	<g id="kvg:StrokePaths_0515a" style="fill:none;stroke:#000000;stroke-width:3;stroke-linecap:round;stroke-linejoin:round;">
		<g id="kvg:0515a-g1" kvg:element="龸">
			<g id="kvg:0515a-g2" kvg:element="⺌" kvg:variant="true" kvg:position="top">
				<path id="kvg:0515a-s1" kvg:type="㇑a" d="M52.46,13.37c1.04,0.88,1.51,2.35,1.51,3.99c0,7.39-0.01,14.07-0.01,16.76" />
				<path id="kvg:0515a-s2" kvg:type="㇔" d="M29.02,19.71c3.28,1.99,8.47,8.17,9.29,11.26" />
				<path id="kvg:0515a-s3" kvg:type="㇒" d="M77.01,16.25c0.07,0.84-0.02,1.66-0.37,2.42c-1.64,3.58-3.62,7.2-7.83,13.3" />
			</g>
			<g id="kvg:0515a-g4" kvg:element="冖">
				<path id="kvg:0515a-s4" kvg:type="㇔" d="M19.75,36.12c-0.14,4.65-2.56,15.54-3.75,18.31" />
				<path id="kvg:0515a-s5" kvg:type="㇖b" d="M20.74,39.18c12.76-1.8,45.26-5.3,66.55-6.37c12.94-0.65,0.9,7.94-0.65,9.2" />
			</g>
		</g>
	</g>
	<g id="kvg:StrokeNumbers_0515a" style="font-size:8;fill:#808080">
		<text transform="matrix(1 0 0 1 44.50 14.50)">1</text>
		<text transform="matrix(1 0 0 1 21.50 20.50)">2</text>
		<text transform="matrix(1 0 0 1 68.25 15.50)">3</text>
		<text transform="matrix(1 0 0 1 13.50 39.13)">4</text>
		<text transform="matrix(1 0 0 1 24.75 35.50)">5</text>
	</g>
</svg>