<?xml version="1.0" encoding="UTF-8"?>
<!--
Copyright (C) 2009/2010/2011 Ulrich Apel.
This work is distributed under the conditions of the Creative Commons
Attribution-Share Alike 3.0 Licence. This means you are free:
* to Share - to copy, distribute and transmit the work
* to Remix - to adapt the work

Under the following conditions:
* Attribution. You must attribute the work by stating your use of KanjiVG in
  your own copyright header and linking to KanjiVG's website
  (http://kanjivg.tagaini.net)
* Share Alike. If you alter, transform, or build upon this work, you may
  distribute the resulting work only under the same or similar license to this
  one.

See http://creativecommons.org/licenses/by-sa/3.0/ for more details.
-->
<!DOCTYPE svg PUBLIC "-//W3C//DTD SVG 1.0//EN" "http://www.w3.org/TR/2001/REC-SVG-20010904/DTD/svg10.dtd" [
	<!ATTLIST g
		xmlns:kvg CDATA #FIXED "http://kanjivg.tagaini.net"
		kvg:element CDATA #IMPLIED
		kvg:variant CDATA #IMPLIED
		kvg:partial CDATA #IMPLIED
		kvg:original CDATA #IMPLIED
		kvg:part CDATA #IMPLIED
		kvg:number CDATA #IMPLIED
		kvg:tradForm CDATA #IMPLIED
		kvg:radicalForm CDATA #IMPLIED
		kvg:position CDATA #IMPLIED
		kvg:radical CDATA #IMPLIED
		kvg:phon CDATA #IMPLIED >
	<!ATTLIST path
		xmlns:kvg CDATA #FIXED "http://kanjivg.tagaini.net"
		kvg:type CDATA #IMPLIED >
]>
<svg xmlns="http://www.w3.org/2000/svg" width="109" height="109" viewBox="0 0 109 109">
	<g id="kvg:StrokePaths_05357" style="fill:none;stroke:#000000;stroke-width:3;stroke-linecap:round;stroke-linejoin:round;">
		<g kvg:element="𢆉">
			<g kvg:position="top" kvg:element="丷">
				<path id="kvg:05357-s5" kvg:type="㇔" d="M38.5,49.38c2.58,1.74,6.66,7.14,7.31,9.84" />
				<path id="kvg:05357-s6" kvg:type="㇒" d="M66.25,45.5c0.05,0.89-0.07,1.75-0.37,2.59c-0.8,2.73-2.75,6.92-5.26,9.66" />
			</g>
			<g id="kvg:05357-g4" kvg:element="干">
				<path id="kvg:05357-s7" kvg:type="㇐" d="M34.78,61.67c1.81,0.39,4.55,0.55,6.36,0.39c9.11-0.8,18.63-1.54,27.63-2.39c2.99-0.28,4.83-0.32,6.33-0.12" />
				<g id="kvg:05357-g5" kvg:element="十">
					<path id="kvg:05357-s8" kvg:type="㇐" d="M33.13,74.19c1.81,0.49,4.55,0.83,6.38,0.74c10.73-0.56,22.66-1.94,31.04-2.66c3-0.26,4.82-0.02,6.33,0.23" />
					<path id="kvg:05357-s9" kvg:type="㇑" d="M53.5,62.5c0.75,0.75,1,2.14,0.99,3.5c-0.04,6.22-0.15,18.46-0.21,25.26c-0.02,2.19-0.03,3.81-0.03,4.49" />
				</g>
			</g>
		</g>

	</g>
	<g id="kvg:StrokeNumbers_05357" style="font-size:8;fill:#808080">
		<text transform="matrix(1 0 0 1 32.50 55.50)">1</text>
		<text transform="matrix(1 0 0 1 56.25 52.50)">2</text>
		<text transform="matrix(1 0 0 1 28.50 63.50)">3</text>
		<text transform="matrix(1 0 0 1 27.50 71.50)">4</text>
		<text transform="matrix(1 0 0 1 47.50 70.50)">5</text>
	</g>
</svg>